<svg width="263" height="110" viewBox="0 0 263 110" fill="none" xmlns="http://www.w3.org/2000/svg">
<g clip-path="url(#clip0)">
<g clip-path="url(#clip1)">
<path d="M46.053 0.776651C44.7139 0.733278 43.6154 1.02938 42.2472 1.81935C41.1393 2.45262 40.2763 3.16771 39.3511 4.20581C33.8225 10.4405 31.8548 22.6439 35.0794 30.8034C35.5174 31.9156 36.3822 33.4576 37.0334 34.2872C39.1649 37.0178 42.14 37.9283 45.0387 36.7395C48.0118 35.5142 50.6768 32.3298 52.6063 27.6947C53.0964 26.4995 54.1537 22.6741 54.3425 21.3659C55.1432 15.9026 54.7408 11.0956 53.1608 7.12155C52.7624 6.1332 51.8791 4.57006 51.2726 3.78477C50.7068 3.05892 49.5496 2.00474 48.8983 1.62803C48.3185 1.28664 46.678 0.798536 46.053 0.776651Z" fill="#98450A"/>
<path d="M75.309 10.2496C72.8387 10.081 69.9049 11.2199 67.143 13.4077C63.5918 16.2171 60.5824 20.385 58.5474 25.3234C57.8993 26.8968 56.9473 30.5402 56.7774 32.0799C56.4018 35.5946 56.8347 38.4768 58.0686 40.6029C59.1217 42.438 60.7529 43.5949 62.6528 43.8695C67.1828 44.5009 72.7888 40.8752 76.938 34.6268C80.3813 29.443 82.1926 23.4982 81.8483 18.5046C81.5114 13.6343 79.0211 10.492 75.309 10.2496Z" fill="#98450A"/>
<path d="M20.0279 21.8366C16.8101 21.5001 13.8185 23.3676 11.7101 27.0408C10.5053 29.1525 9.58313 32.262 9.31296 35.1417C8.67336 41.8452 10.8069 48.7337 14.5882 52.1895C16.5256 53.9542 18.7123 54.7585 20.8509 54.4742C24.0038 54.0573 26.6846 51.508 28.4949 47.1968C28.8563 46.3312 29.5701 43.6673 29.7208 42.5916C30.9681 34.0127 27.7994 25.3425 22.4275 22.6009C21.7943 22.2775 20.6161 21.9052 20.0279 21.8366Z" fill="#98450A"/>
<path d="M82.3449 45.0857C79.4726 44.9389 76.2972 46.1343 73.2935 48.5C70.0324 51.0717 67.2932 54.8348 65.693 58.9353C65.2771 60.0047 64.6648 62.3803 64.5155 63.4808C63.5193 70.8813 67.4591 75.6171 73.6559 74.4952C76.9805 73.8898 80.4223 71.7304 83.3567 68.416C88.92 62.1421 90.9609 53.5899 88.0752 48.6028C86.8599 46.4977 84.7553 45.2059 82.3449 45.0857Z" fill="#98450A"/>
<path d="M45.9591 49.7249C40.7249 49.2768 33.0184 52.8331 25.3151 59.2453C19.2857 64.2701 14.4193 70.116 12.0833 75.1517C11.5247 76.3609 10.8955 78.6187 10.8591 79.5391C10.8066 80.9728 11.0887 82.0028 11.8471 83.217C13.119 85.232 14.9022 86.6966 17.3503 87.7327C18.6224 88.2676 21.3119 88.9155 23.0786 89.1139C25.4451 89.3679 27.4852 89.4211 32.1106 89.3341C36.5806 89.2539 37.8094 89.3162 38.9363 89.699C40.3664 90.1874 41.3656 90.8353 44.1348 93.0574C46.1187 94.6485 47.246 95.4521 48.2468 96.0033C51.9876 98.0409 55.6909 97.6825 60.1616 94.8525C61.4947 94.0127 61.9572 93.5543 62.5992 92.4565C62.9623 91.8258 63.0178 91.679 63.4445 90.0867C63.8307 88.6453 63.9172 88.2318 63.9887 87.3613C64.4469 82.0893 63.4279 75.2972 61.1529 68.4841C58.4465 60.3825 54.4322 53.993 50.3667 51.3265C48.8878 50.356 47.5391 49.8652 45.9591 49.7249Z" fill="#98450A"/>
</g>
<path d="M103.8 71.6C101.907 71.6 100.133 71.1733 98.48 70.32C97.7333 69.9467 97.1067 69.5067 96.6 69C96.2267 69.6133 95.76 70.16 95.2 70.64C94.72 70.9867 94.4533 71.1733 94.4 71.2H93.4V63.6H95C95.4 64.9067 95.96 66.08 96.68 67.12C98.3067 69.44 100.413 70.6 103 70.6C104.52 70.6 105.733 70.1467 106.64 69.24C107.547 68.3333 108 67.12 108 65.6C108 64.72 107.733 63.9333 107.2 63.24C106.693 62.5467 106.053 61.9333 105.28 61.4C104.507 60.8667 103.427 60.2 102.04 59.4C100.28 58.4133 98.8533 57.52 97.76 56.72C96.6667 55.92 95.7333 54.92 94.96 53.72C94.1867 52.4933 93.8 51.0533 93.8 49.4C93.8 48.0933 94.16 46.92 94.88 45.88C95.6267 44.8133 96.7333 43.9733 98.2 43.36C99.6667 42.72 101.467 42.4 103.6 42.4C105.147 42.4 106.693 42.84 108.24 43.72C108.827 44.04 109.413 44.4667 110 45C110.453 44.3067 110.92 43.76 111.4 43.36C111.88 43.0133 112.147 42.8267 112.2 42.8H113.2V50.4H111.6C111.253 49.12 110.733 47.96 110.04 46.92C109.4 45.9067 108.6 45.0667 107.64 44.4C106.707 43.7333 105.627 43.4 104.4 43.4C103.36 43.4 102.467 43.8133 101.72 44.64C100.973 45.4667 100.6 46.52 100.6 47.8C100.6 48.7867 100.88 49.68 101.44 50.48C102.027 51.2533 102.733 51.9333 103.56 52.52C104.413 53.1067 105.56 53.8133 107 54.64C108.68 55.6 110.04 56.4533 111.08 57.2C112.12 57.9467 113 58.88 113.72 60C114.44 61.0933 114.8 62.36 114.8 63.8C114.8 65.24 114.387 66.56 113.56 67.76C112.733 68.9333 111.493 69.8667 109.84 70.56C108.187 71.2533 106.173 71.6 103.8 71.6ZM117.389 70.4L119.789 69.8V44.2L117.389 43.6V43H122.589C124.989 43 126.189 44.2 126.189 46.6V53C126.589 52.4667 127.002 52.04 127.429 51.72C128.576 50.84 129.896 50.4 131.389 50.4C132.882 50.4 134.216 50.72 135.389 51.36C136.589 51.9733 137.522 52.7867 138.189 53.8C138.856 54.8133 139.189 55.88 139.189 57V69.8L141.589 70.4V71H136.389C133.989 71 132.789 69.8 132.789 67.4V57C132.789 55.32 132.482 54.04 131.869 53.16C131.282 52.2533 130.589 51.8 129.789 51.8C128.776 51.8 127.869 52.3333 127.069 53.4C126.722 53.8533 126.429 54.3867 126.189 55V69.8L128.589 70.4V71H117.389V70.4ZM154.791 71.6C151.377 71.6 148.724 70.6667 146.831 68.8C144.937 66.9067 143.991 64.3067 143.991 61C143.991 58.84 144.404 56.96 145.231 55.36C146.057 53.76 147.204 52.5333 148.671 51.68C150.164 50.8267 151.871 50.4 153.791 50.4C155.711 50.4 157.391 50.76 158.831 51.48C160.297 52.2 161.417 53.1733 162.191 54.4C162.991 55.6 163.391 56.9333 163.391 58.4C163.391 59.0667 163.324 59.64 163.191 60.12L162.991 60.8C161.844 61.04 160.604 61.24 159.271 61.4C156.471 61.8 153.644 62 150.791 62C150.791 65.0933 151.217 67.3067 152.071 68.64C152.924 69.9467 154.097 70.6 155.591 70.6C156.631 70.6 157.591 70.36 158.471 69.88C159.377 69.3733 160.084 68.72 160.591 67.92C161.124 67.0933 161.391 66.2533 161.391 65.4H162.391C162.391 66.4667 162.071 67.48 161.431 68.44C160.791 69.4 159.897 70.1733 158.751 70.76C157.604 71.32 156.284 71.6 154.791 71.6ZM150.791 61C152.497 61 153.884 60.9333 154.951 60.8C155.404 60.7733 155.884 60.7067 156.391 60.6C156.417 60.4667 156.484 60.1733 156.591 59.72C156.724 59.0533 156.791 58.3467 156.791 57.6C156.791 55.3867 156.497 53.7733 155.911 52.76C155.324 51.72 154.617 51.2 153.791 51.2C151.791 51.2 150.791 54.4667 150.791 61ZM166.373 70.4L168.773 69.8V44.2L166.373 43.6V43H171.573C173.973 43 175.173 44.2 175.173 46.6V69.8L177.573 70.4V71H166.373V70.4ZM180.367 70.4L182.767 69.8V44.2L180.367 43.6V43H190.567C195.341 43 198.994 44.2267 201.527 46.68C204.087 49.1333 205.367 52.5733 205.367 57C205.367 61.4267 204.087 64.8667 201.527 67.32C198.994 69.7733 195.341 71 190.567 71H180.367V70.4ZM190.567 70C193.047 70 194.967 69 196.327 67C197.687 64.9733 198.367 61.64 198.367 57C198.367 52.36 197.687 49.04 196.327 47.04C194.967 45.0133 193.047 44 190.567 44H189.367V70H190.567ZM219.161 71.6C215.854 71.6 213.254 70.6667 211.361 68.8C209.494 66.9067 208.561 64.3067 208.561 61C208.561 57.6933 209.494 55.1067 211.361 53.24C213.254 51.3467 215.854 50.4 219.161 50.4C222.468 50.4 225.054 51.3467 226.921 53.24C228.814 55.1067 229.761 57.6933 229.761 61C229.761 64.3067 228.814 66.9067 226.921 68.8C225.054 70.6667 222.468 71.6 219.161 71.6ZM219.161 70.8C220.228 70.8 221.121 70.0533 221.841 68.56C222.588 67.0667 222.961 64.5467 222.961 61C222.961 57.4533 222.588 54.9333 221.841 53.44C221.121 51.9467 220.228 51.2 219.161 51.2C218.094 51.2 217.188 51.9467 216.441 53.44C215.721 54.9333 215.361 57.4533 215.361 61C215.361 64.5467 215.721 67.0667 216.441 68.56C217.188 70.0533 218.094 70.8 219.161 70.8ZM242.375 79.6C240.002 79.6 238.068 79.3867 236.575 78.96C235.082 78.5333 234.002 77.9867 233.335 77.32C232.695 76.6533 232.375 75.9467 232.375 75.2C232.375 74.2933 232.642 73.56 233.175 73C233.735 72.4667 234.468 72.2 235.375 72.2C235.588 72.2 235.975 72.24 236.535 72.32L236.975 72.4V78C237.295 78.1067 237.802 78.24 238.495 78.4C239.722 78.6667 240.882 78.8 241.975 78.8C245.228 78.8 247.602 78.3333 249.095 77.4C250.615 76.4933 251.375 75.36 251.375 74C251.375 72.2667 249.775 71.4 246.575 71.4H238.975C236.975 71.4 235.442 70.9867 234.375 70.16C233.308 69.3333 232.775 68.28 232.775 67C232.775 65.72 233.402 64.5867 234.655 63.6C235.162 63.2267 235.802 62.8933 236.575 62.6C235.588 61.9867 234.868 61.2667 234.415 60.44C233.988 59.5867 233.775 58.5733 233.775 57.4C233.775 55.4267 234.522 53.84 236.015 52.64C237.508 51.4133 239.695 50.8 242.575 50.8C243.828 50.8 244.975 50.9333 246.015 51.2C247.082 51.44 247.935 51.7733 248.575 52.2C248.788 51.7467 249.068 51.3467 249.415 51C250.215 50.2 251.202 49.8 252.375 49.8C253.282 49.8 254.042 50.12 254.655 50.76C255.268 51.3733 255.575 52.1867 255.575 53.2C255.575 53.9733 255.362 54.6 254.935 55.08C254.535 55.56 254.015 55.8 253.375 55.8C253.082 55.8 252.748 55.7733 252.375 55.72L251.975 55.6V50.8C251.282 50.8 250.628 51.1333 250.015 51.8C249.775 52.04 249.562 52.3733 249.375 52.8C250.708 53.9733 251.375 55.5067 251.375 57.4C251.375 59.3733 250.628 60.9733 249.135 62.2C247.642 63.4 245.455 64 242.575 64C240.655 64 238.922 63.6667 237.375 63L236.575 63.4C236.308 63.56 236.108 63.72 235.975 63.88C235.842 64.0133 235.775 64.1867 235.775 64.4C235.775 64.8533 236.002 65.2 236.455 65.44C236.935 65.68 237.775 65.8 238.975 65.8H246.575C248.575 65.8 250.135 66.3867 251.255 67.56C252.402 68.7067 252.975 70.32 252.975 72.4C252.975 74.5333 252.082 76.2667 250.295 77.6C248.535 78.9333 245.895 79.6 242.375 79.6ZM242.575 63.2C243.455 63.2 244.135 62.7733 244.615 61.92C245.122 61.0667 245.375 59.56 245.375 57.4C245.375 55.24 245.122 53.7333 244.615 52.88C244.135 52.0267 243.455 51.6 242.575 51.6C241.695 51.6 241.002 52.0267 240.495 52.88C240.015 53.7333 239.775 55.24 239.775 57.4C239.775 59.56 240.015 61.0667 240.495 61.92C241.002 62.7733 241.695 63.2 242.575 63.2Z" fill="url(#paint0_linear)"/>
</g>
<defs>
<linearGradient id="paint0_linear" x1="186.5" y1="34" x2="186.5" y2="136" gradientUnits="userSpaceOnUse">
<stop offset="0.169792" stop-color="#EFA571"/>
<stop offset="0.445833" stop-color="#9E4D13"/>
</linearGradient>
<clipPath id="clip0">
<rect width="263" height="110" fill="white"/>
</clipPath>
<clipPath id="clip1">
<rect width="100" height="100" fill="white" transform="translate(11.8819 -11) rotate(15)"/>
</clipPath>
</defs>
</svg>
